<?xml version="1.0" encoding="UTF-8"?>
<svg version="1.1" xmlns="http://www.w3.org/2000/svg" width="833" height="833">
<path d="M0 0 C274.89 0 549.78 0 833 0 C833 274.89 833 549.78 833 833 C558.11 833 283.22 833 0 833 C0 558.11 0 283.22 0 0 Z " fill="#1F344C" transform="translate(0,0)"/>
<path d="M0 0 C0.7541217 0.00068481 1.50824341 0.00136963 2.28521729 0.0020752 C14.28253384 0.03799237 25.87457755 0.46658583 37.5625 3.375 C38.88350708 3.69778931 38.88350708 3.69778931 40.23120117 4.02709961 C47.42128515 5.81817675 54.5631026 7.77695788 61.6875 9.8125 C62.68289795 10.09303223 63.6782959 10.37356445 64.70385742 10.66259766 C70.44684485 12.34130956 75.64994717 14.33720247 80.875 17.25 C81.54684326 17.62229736 82.21868652 17.99459473 82.91088867 18.37817383 C85.66470393 19.92287025 88.40232892 21.49492032 91.13867188 23.0703125 C94.64760958 25.06963023 98.06232316 26.87299439 101.875 28.25 C101.875 28.91 101.875 29.57 101.875 30.25 C102.6175 30.353125 103.36 30.45625 104.125 30.5625 C107.0723519 31.29933797 108.65883074 32.19799142 110.875 34.25 C110.875 34.91 110.875 35.57 110.875 36.25 C111.96748047 36.63478516 111.96748047 36.63478516 113.08203125 37.02734375 C130.83626149 44.79947531 148.57515791 66.30185741 158.875 82.25 C158.875 83.24 158.875 84.23 158.875 85.25 C159.535 85.25 160.195 85.25 160.875 85.25 C163.18430609 88.37565314 164.97662932 91.86394369 166.875 95.25 C167.51050781 96.3740625 168.14601563 97.498125 168.80078125 98.65625 C175.87408119 111.39545165 181.77982637 124.27688106 184.3671875 138.6875 C184.61295197 141.17333975 184.61295197 141.17333975 185.875 142.25 C185.99875 143.508125 186.1225 144.76625 186.25 146.0625 C186.73626281 150.97218584 187.88209481 155.59649912 189.15625 160.35546875 C190.58139656 166.09478181 191.06372301 171.65832475 191.1484375 177.55859375 C191.16722961 178.7511528 191.16722961 178.7511528 191.18640137 179.96780396 C191.39861112 196.67932207 191.3116321 212.4982319 186.61035156 228.68017578 C185.84778979 231.34509118 185.17850818 234.02161648 184.5234375 236.71484375 C182.03021742 246.73714719 178.88685855 256.41956538 175.1875 266.0625 C174.8069043 267.06603516 174.42630859 268.06957031 174.03417969 269.10351562 C173.6684082 270.02455078 173.30263672 270.94558594 172.92578125 271.89453125 C172.60262939 272.71284424 172.27947754 273.53115723 171.9465332 274.37426758 C170.875 276.25 170.875 276.25 167.875 277.25 C166.80589435 279.53821043 166.80589435 279.53821043 165.875 282.25 C164.92089715 284.075818 163.94056202 285.88811394 162.9375 287.6875 C160.82754075 291.50503019 158.78293882 295.32812575 156.875 299.25 C156.215 299.25 155.555 299.25 154.875 299.25 C154.875 299.91 154.875 300.57 154.875 301.25 C154.215 301.25 153.555 301.25 152.875 301.25 C152.61001709 301.99040527 152.34503418 302.73081055 152.07202148 303.49365234 C150.88663717 306.22320341 149.6210214 308.07835743 147.72265625 310.3515625 C147.11099609 311.08890625 146.49933594 311.82625 145.86914062 312.5859375 C145.23169922 313.34132813 144.59425781 314.09671875 143.9375 314.875 C143.30392578 315.638125 142.67035156 316.40125 142.01757812 317.1875 C136.12015423 324.25696713 136.12015423 324.25696713 133.875 326.25 C133.215 326.25 132.555 326.25 131.875 326.25 C131.61847656 326.82878906 131.36195313 327.40757812 131.09765625 328.00390625 C121.96891241 344.77396283 97.238386 357.14692155 81.93359375 367.77734375 C80.20024224 369.01733145 78.52906572 370.3435716 76.875 371.6875 C74.875 373.25 74.875 373.25 72.875 373.25 C72.875 373.91 72.875 374.57 72.875 375.25 C71.37109375 376.73046875 71.37109375 376.73046875 69.3125 378.4375 C62.95105197 383.87895025 57.68081491 389.09009514 53.234375 396.234375 C51.875 398.25 51.875 398.25 50.453125 399.6171875 C48.13497754 402.0156668 46.59690094 404.77473215 44.875 407.625 C44.194375 408.74648438 43.51375 409.86796875 42.8125 411.0234375 C42.173125 412.08820313 41.53375 413.15296875 40.875 414.25 C40.05708984 415.56677734 40.05708984 415.56677734 39.22265625 416.91015625 C38.00163195 419.03013757 37.11401774 421.00870902 36.3125 423.3125 C35.53184888 425.5181492 34.78982957 427.39904825 33.625 429.4375 C32.57154845 431.98334126 33.10520852 433.6607014 33.875 436.25 C34.205 436.58 34.535 436.91 34.875 437.25 C35.89322389 446.2851259 34.91001639 452.74784337 30.1875 460.53125 C28.66810624 463.67856565 28.55740385 465.79614189 28.875 469.25 C29.205 469.58 29.535 469.91 29.875 470.25 C30.58058104 475.79385104 29.97723711 478.51589587 26.875 483.1875 C23.7033825 488.05313438 23.0158551 491.53668645 23.875 497.25 C24.225625 498.384375 24.57625 499.51875 24.9375 500.6875 C24.84507548 505.95569768 21.92754218 508.0529663 18.34375 511.703125 C16.12182236 513.99536681 14.25519516 516.30303493 12.375 518.875 C5.90826973 527.25067353 -1.56833464 533.9329473 -12.125 536.25 C-31.0253317 537.79983415 -31.0253317 537.79983415 -36.125 535.25 C-38.81262552 534.92332728 -41.4935823 534.63765767 -44.1875 534.375 C-57.96971636 532.91488621 -71.40151082 530.25803152 -84.9375 527.3125 C-86.61863892 526.95140137 -86.61863892 526.95140137 -88.33374023 526.58300781 C-100.02292973 523.98675099 -110.12377662 521.43134451 -119.125 513.25 C-119.72828125 512.73824219 -120.3315625 512.22648437 -120.953125 511.69921875 C-128.892662 504.49283719 -133.90278309 495.03149104 -137.125 484.9375 C-137.3327002 484.29240479 -137.54040039 483.64730957 -137.75439453 482.98266602 C-139.14561026 478.22538982 -139.5380872 474.15024696 -139.125 469.25 C-138.62524658 468.78255371 -138.12549316 468.31510742 -137.6105957 467.83349609 C-135.89638435 466.32571745 -135.89638435 466.32571745 -135.87963867 463.92504883 C-135.9335376 463.02810303 -135.98743652 462.13115723 -136.04296875 461.20703125 C-136.07970703 460.21509766 -136.11644531 459.22316406 -136.15429688 458.20117188 C-136.25881531 456.12757782 -136.3757753 454.0545692 -136.50585938 451.98242188 C-136.68576766 446.51814859 -136.57068265 443.14321872 -133.109375 438.7578125 C-132.5534668 438.16758301 -131.99755859 437.57735352 -131.42480469 436.96923828 C-129.72348 435.08562408 -129.72348 435.08562408 -130.1875 431.3125 C-130.81654194 428.40207299 -130.81654194 428.40207299 -132.125 427.25 C-132.94769144 419.94991516 -132.96975703 413.94931991 -129.125 407.5625 C-124.90202323 400.11018805 -125.53655327 392.85840158 -125.99853516 384.55273438 C-126.11239331 382.4795489 -126.17465192 380.40368424 -126.23046875 378.328125 C-126.86796158 362.27019751 -130.49530944 344.9918442 -139.125 331.25 C-142.27993876 326.17466374 -145.15208706 320.93981812 -147.1875 315.3125 C-147.496875 314.631875 -147.80625 313.95125 -148.125 313.25 C-149.115 312.92 -150.105 312.59 -151.125 312.25 C-152.51171875 310.47265625 -152.51171875 310.47265625 -153.8125 308.3125 C-154.46798828 307.24708984 -154.46798828 307.24708984 -155.13671875 306.16015625 C-156.125 304.25 -156.125 304.25 -156.125 302.25 C-156.785 302.25 -157.445 302.25 -158.125 302.25 C-159.5625 300.23828125 -159.5625 300.23828125 -161.125 297.5625 C-161.640625 296.69238281 -162.15625 295.82226562 -162.6875 294.92578125 C-164.03714843 292.41352805 -165.12511557 289.91796085 -166.125 287.25 C-166.785 287.25 -167.445 287.25 -168.125 287.25 C-168.50591797 286.34507812 -168.50591797 286.34507812 -168.89453125 285.421875 C-169.23871094 284.62265625 -169.58289063 283.8234375 -169.9375 283 C-170.27394531 282.21109375 -170.61039062 281.4221875 -170.95703125 280.609375 C-172.03547524 278.23563287 -172.03547524 278.23563287 -173.60546875 276.3359375 C-178.2349444 269.98082182 -180.30311424 261.19277493 -182.3515625 253.6640625 C-183.11888629 251.08945147 -183.11888629 251.08945147 -184.58203125 248.15625 C-186.68533602 243.34038059 -187.36262648 238.28470266 -188.1875 233.125 C-188.34798828 232.16851562 -188.50847656 231.21203125 -188.67382812 230.2265625 C-189.00175093 228.25639177 -189.32181483 226.28489892 -189.63452148 224.31225586 C-189.96683305 222.23750029 -190.31583394 220.16536132 -190.67993164 218.09594727 C-192.02372867 210.168205 -192.47425757 202.47314348 -192.4375 194.4375 C-192.43403564 193.18718994 -192.43057129 191.93687988 -192.42700195 190.64868164 C-192.24469323 174.75760577 -190.84229945 158.50594716 -186.125 143.25 C-185.465 143.25 -184.805 143.25 -184.125 143.25 C-184.18300781 142.66734375 -184.24101562 142.0846875 -184.30078125 141.484375 C-184.77214898 132.91894987 -181.95792023 125.92925132 -177.5546875 118.65625 C-176.24670158 116.45483108 -175.40002875 114.46984705 -174.5625 112.0625 C-167.22237016 93.42134006 -155.20984308 77.22467865 -141.5 62.80078125 C-139.10451087 60.29432134 -139.10451087 60.29432134 -137.03125 57.6171875 C-134.12624768 54.0097461 -130.65318566 51.23090934 -127.125 48.25 C-126.28195312 47.5075 -125.43890625 46.765 -124.5703125 46 C-110.29850658 33.66536441 -93.96165298 22.59863919 -76.125 16.25 C-74.78278717 15.60139617 -73.44950901 14.93403077 -72.125 14.25 C-66.40157089 11.32121401 -60.67720768 9.29089408 -54.40625 7.84375 C-52.04414681 7.25903802 -52.04414681 7.25903802 -49.46875 6.34375 C-33.29065016 0.83986036 -16.95229325 -0.02212342 0 0 Z " fill="#8D9697" transform="translate(436.125,148.75)"/>
<path d="M0 0 C2.21706634 1.6442002 4.1797118 3.34960349 6.140625 5.2890625 C6.69878906 5.80984375 7.25695312 6.330625 7.83203125 6.8671875 C16.31748318 15.62910779 17.78369796 25.93439855 17.67724609 37.63305664 C17.3999965 46.00386163 15.92921277 53.96732546 14.015625 62.1015625 C13.22047376 65.55550071 12.95810396 68.72990214 13.140625 72.2890625 C14.1925 72.8459375 15.244375 73.4028125 16.328125 73.9765625 C19.84737686 76.02230647 22.63009002 78.01775935 25.140625 81.2890625 C25.765625 84.7890625 25.765625 84.7890625 25.140625 88.2890625 C22.27253614 91.97660531 19.58494088 93.89227751 15.140625 95.2890625 C15.57375 95.71316406 16.006875 96.13726562 16.453125 96.57421875 C19.4288889 99.70841453 21.00611778 101.57984264 21.828125 105.9140625 C20.94942821 110.22766493 19.66048045 111.68743021 16.140625 114.2890625 C12.828125 115.1015625 12.828125 115.1015625 10.140625 115.2890625 C10.140625 116.2790625 10.140625 117.2690625 10.140625 118.2890625 C10.759375 118.5778125 11.378125 118.8665625 12.015625 119.1640625 C14.140625 120.2890625 14.140625 120.2890625 16.140625 122.2890625 C16.5890937 126.84849429 16.74078551 129.20415696 14.515625 133.2265625 C11.69661512 135.67465003 9.81914834 136.03825409 6.140625 136.2890625 C6.945 137.0521875 7.749375 137.8153125 8.578125 138.6015625 C11.65973728 141.83349733 12.0752275 143.37349748 12.390625 147.7890625 C12.140625 151.2890625 12.140625 151.2890625 10.828125 153.2265625 C9.140625 154.2890625 9.140625 154.2890625 6.140625 154.2890625 C6.140625 155.2790625 6.140625 156.2690625 6.140625 157.2890625 C7.130625 157.2890625 8.120625 157.2890625 9.140625 157.2890625 C9.76418158 166.36527497 9.76418158 166.36527497 7.453125 169.7890625 C4.403493 171.76720218 1.72395972 173.04337263 -1.8984375 173.60546875 C-8.54344466 174.69013487 -12.7412382 176.87131646 -16.859375 182.2890625 C-23.16706605 192.80381787 -26.07195426 204.07209094 -28.0703125 216.05859375 C-28.62707439 219.34809263 -29.43986163 222.24636645 -30.859375 225.2890625 C-41.52341937 225.79777133 -51.42599167 224.29496167 -61.859375 222.2890625 C-63.03113281 222.0722583 -63.03113281 222.0722583 -64.2265625 221.85107422 C-70.74094001 220.60956229 -77.0988931 218.94585919 -83.484375 217.1640625 C-84.48855469 216.88691406 -85.49273437 216.60976563 -86.52734375 216.32421875 C-88.97223955 215.64896181 -91.41620566 214.97053429 -93.859375 214.2890625 C-93.30283838 209.5262807 -92.63776347 204.7948028 -91.88671875 200.05859375 C-91.70947266 198.92486328 -91.53222656 197.79113281 -91.34960938 196.62304688 C-90.98401623 194.29384394 -90.61172574 191.96568138 -90.23242188 189.63867188 C-87.54132614 174.91214117 -87.54132614 174.91214117 -91.859375 161.2890625 C-91.859375 160.6290625 -91.859375 159.9690625 -91.859375 159.2890625 C-92.39304687 159.19496094 -92.92671875 159.10085938 -93.4765625 159.00390625 C-96.61876681 158.06124496 -99.16240255 156.51909168 -101.984375 154.8515625 C-103.03882813 154.23410156 -104.09328125 153.61664063 -105.1796875 152.98046875 C-107.859375 151.2890625 -107.859375 151.2890625 -109.859375 149.2890625 C-110.36364194 146.25173373 -110.31328727 143.33135544 -109.859375 140.2890625 C-107.984375 137.7265625 -107.984375 137.7265625 -105.859375 136.2890625 C-105.199375 136.2890625 -104.539375 136.2890625 -103.859375 136.2890625 C-104.354375 135.6084375 -104.849375 134.9278125 -105.359375 134.2265625 C-107.25413162 130.51599744 -107.52092224 128.40535642 -106.859375 124.2890625 C-105.04605732 121.94759403 -103.43934074 120.92634845 -100.859375 119.2890625 C-99.539375 119.2890625 -98.219375 119.2890625 -96.859375 119.2890625 C-97.2925 118.88816406 -97.725625 118.48726563 -98.171875 118.07421875 C-101.40933688 114.76930974 -103.3198699 112.32953076 -103.546875 107.6015625 C-103.30377449 104.20394341 -103.00760833 103.45847202 -100.671875 100.7890625 C-97.97554409 99.35101935 -95.88045293 98.63432855 -92.859375 98.2890625 C-93.5090625 97.52722656 -93.5090625 97.52722656 -94.171875 96.75 C-96.73482215 93.58191255 -98.66166999 91.18772163 -99.546875 87.1640625 C-98.5780203 83.11248831 -96.885668 81.11798856 -93.859375 78.2890625 C-90.546875 77.4140625 -90.546875 77.4140625 -87.859375 77.2890625 C-88.2925 76.88816406 -88.725625 76.48726563 -89.171875 76.07421875 C-92.37028543 72.80917477 -94.32796941 70.33070524 -94.609375 65.6640625 C-94.43705868 63.07489932 -94.1821326 61.71337311 -92.60546875 59.640625 C-88.64883222 56.20955673 -85.27081491 55.15266482 -80.171875 55.2265625 C-78.95951172 55.24009766 -78.95951172 55.24009766 -77.72265625 55.25390625 C-77.10777344 55.26550781 -76.49289062 55.27710938 -75.859375 55.2890625 C-75.84519531 54.72703125 -75.83101563 54.165 -75.81640625 53.5859375 C-74.74822417 34.76283709 -69.3742201 13.69668072 -55.03125 0.796875 C-39.29822449 -12.28180572 -16.65134295 -9.96350849 0 0 Z " fill="#3C4A4E" transform="translate(451.859375,353.7109375)"/>
<path d="M0 0 C2.74728342 1.02349774 5.47667159 2.07127654 8.1875 3.1875 C8.1875 3.8475 8.1875 4.5075 8.1875 5.1875 C8.98414063 5.28675781 9.78078125 5.38601563 10.6015625 5.48828125 C15.09809194 6.36505551 19.24840107 7.85602531 23.5625 9.375 C34.46299812 13.12235032 45.52338246 15.90515143 56.72729492 18.57836914 C58.8034333 19.09240757 60.86322991 19.67179472 62.91796875 20.265625 C66.46735405 21.26640747 69.9966311 21.96765988 73.625 22.625 C75.03648964 22.88264107 76.44794706 23.14045868 77.859375 23.3984375 C78.57544922 23.52831055 79.29152344 23.65818359 80.02929688 23.79199219 C82.13088014 24.17712396 84.22976676 24.57426071 86.328125 24.9765625 C93.54061902 26.35788119 100.75547626 27.65773376 108.0234375 28.71875 C110.09522936 29.02568213 112.16344307 29.35810187 114.2265625 29.71875 C126.12745969 31.68775489 138.15032538 31.83871968 150.1875 32.1875 C150.5175 32.8475 150.8475 33.5075 151.1875 34.1875 C151.8475 33.8575 152.5075 33.5275 153.1875 33.1875 C153.5175 34.8375 153.8475 36.4875 154.1875 38.1875 C154.8475 38.1875 155.5075 38.1875 156.1875 38.1875 C156.84525794 45.74440786 155.9203601 50.90022076 152.28125 57.58203125 C150.99778437 60.63942973 150.92504658 62.90214554 151.1875 66.1875 C151.5175 66.5175 151.8475 66.8475 152.1875 67.1875 C152.89308104 72.73135104 152.28973711 75.45339587 149.1875 80.125 C146.0158825 84.99063438 145.3283551 88.47418645 146.1875 94.1875 C146.538125 95.321875 146.88875 96.45625 147.25 97.625 C147.15757548 102.89319768 144.24004218 104.9904663 140.65625 108.640625 C138.43432236 110.93286681 136.56769516 113.24053493 134.6875 115.8125 C128.22076973 124.18817353 120.74416536 130.8704473 110.1875 133.1875 C91.2871683 134.73733415 91.2871683 134.73733415 86.1875 132.1875 C83.49987448 131.86082728 80.8189177 131.57515767 78.125 131.3125 C64.34278364 129.85238621 50.91098918 127.19553152 37.375 124.25 C36.25424072 124.00926758 35.13348145 123.76853516 33.97875977 123.52050781 C22.28957027 120.92425099 12.18872338 118.36884451 3.1875 110.1875 C2.58421875 109.67574219 1.9809375 109.16398438 1.359375 108.63671875 C-6.580162 101.43033719 -11.59028309 91.96899104 -14.8125 81.875 C-15.0202002 81.22990479 -15.22790039 80.58480957 -15.44189453 79.92016602 C-16.83311026 75.16288982 -17.2255872 71.08774696 -16.8125 66.1875 C-16.31274658 65.72005371 -15.81299316 65.25260742 -15.2980957 64.77099609 C-13.58388435 63.26321745 -13.58388435 63.26321745 -13.56713867 60.86254883 C-13.6210376 59.96560303 -13.67493652 59.06865723 -13.73046875 58.14453125 C-13.76720703 57.15259766 -13.80394531 56.16066406 -13.84179688 55.13867188 C-13.94631531 53.06507782 -14.0632753 50.9920692 -14.19335938 48.91992188 C-14.37326766 43.45564859 -14.25818265 40.08071872 -10.796875 35.6953125 C-10.2409668 35.10508301 -9.68505859 34.51485352 -9.11230469 33.90673828 C-7.41098 32.02312408 -7.41098 32.02312408 -7.875 28.25 C-8.50404194 25.33957299 -8.50404194 25.33957299 -9.8125 24.1875 C-10.68745753 15.20043626 -10.19463217 7.67355657 -4.8125 0.1875 C-2.8125 -0.8125 -2.8125 -0.8125 0 0 Z " fill="#D1D5C8" transform="translate(313.8125,551.8125)"/>
<path d="M0 0 C3.60233872 0.4618383 6.8940303 1.25003158 10.3125 2.4375 C14.04609879 3.72559158 17.73651116 4.67458251 21.6015625 5.47265625 C23.23194673 5.83112835 24.85251035 6.23680843 26.4609375 6.68359375 C35.99485243 9.3197622 45.72795063 10.46854263 55.5234375 11.68676758 C57.62787728 11.9529344 59.72853996 12.2486981 61.828125 12.55078125 C67.6888765 13.28076809 73.60264549 13.36484141 79.5 13.5625 C80.70398438 13.60568359 81.90796875 13.64886719 83.1484375 13.69335938 C86.09886193 13.79873168 89.04936071 13.90085903 92 14 C92 13.34 92 12.68 92 12 C93.95689659 11.77857745 95.91561952 11.5732432 97.875 11.375 C99.51082031 11.20097656 99.51082031 11.20097656 101.1796875 11.0234375 C102.11039063 11.01570312 103.04109375 11.00796875 104 11 C104.99 11.99 104.99 11.99 106 13 C104.2306383 19.57191489 104.2306383 19.57191489 102.94140625 21.96484375 C101.87572903 24.26865217 101.76318532 25.78848504 101.8125 28.3125 C101.82023437 29.49972656 101.82023437 29.49972656 101.828125 30.7109375 C101.93191971 33.23245455 101.93191971 33.23245455 103.0625 36.4375 C102.97007548 41.70569768 100.05254218 43.8029663 96.46875 47.453125 C94.24682236 49.74536681 92.38019516 52.05303493 90.5 54.625 C84.03326973 63.00067353 76.55666536 69.6829473 66 72 C47.0996683 73.54983415 47.0996683 73.54983415 42 71 C39.31237448 70.67332728 36.6314177 70.38765767 33.9375 70.125 C20.15528364 68.66488621 6.72348918 66.00803152 -6.8125 63.0625 C-7.93325928 62.82176758 -9.05401855 62.58103516 -10.20874023 62.33300781 C-21.89792973 59.73675099 -31.99877662 57.18134451 -41 49 C-41.60328125 48.48824219 -42.2065625 47.97648438 -42.828125 47.44921875 C-50.767662 40.24283719 -55.77778309 30.78149104 -59 20.6875 C-59.2077002 20.04240479 -59.41540039 19.39730957 -59.62939453 18.73266602 C-61.01697797 13.98781049 -61.33535262 9.88881242 -61 5 C-59 3 -59 3 -57 2 C-54.40180378 3.44344234 -52.23546461 4.75396967 -50.171875 6.91015625 C-47.77505345 9.21645037 -45.42909362 10.62236618 -42.5 12.1875 C-41.09234375 12.95126953 -41.09234375 12.95126953 -39.65625 13.73046875 C-37.39727454 14.81012614 -35.44333115 15.5217064 -33 16 C-33 16.66 -33 17.32 -33 18 C-31.845 18.2475 -30.69 18.495 -29.5 18.75 C-22.2965106 20.3456365 -15.1524795 22.19213402 -8 24 C-8 24.66 -8 25.32 -8 26 C-3.6511043 26.95132093 0.52807228 27.44100903 5 28 C5 19.75 5 11.5 5 3 C3.35 2.34 1.7 1.68 0 1 C0 0.67 0 0.34 0 0 Z " fill="#D0D4C8" transform="translate(358,613)"/>
<path d="M0 0 C1.17357056 -0.00809692 1.17357056 -0.00809692 2.37084961 -0.01635742 C6.21276045 0.03199759 8.11000056 0.13583371 11.375 2.3125 C11.375 3.6325 11.375 4.9525 11.375 6.3125 C12.035 6.3125 12.695 6.3125 13.375 6.3125 C13.83166414 13.32736854 13.80010119 18.56720288 9.375 24.3125 C8.72273437 25.18648437 8.07046875 26.06046875 7.3984375 26.9609375 C3.47888283 32.0492321 3.47888283 32.0492321 1.375 34.3125 C0.715 34.3125 0.055 34.3125 -0.625 34.3125 C-0.88023437 34.89386719 -1.13546875 35.47523438 -1.3984375 36.07421875 C-5.18695795 42.98766531 -12.70245231 48.24109689 -18.625 53.3125 C-19.28113281 53.89644531 -19.93726563 54.48039062 -20.61328125 55.08203125 C-21.23589844 55.63246094 -21.85851562 56.18289062 -22.5 56.75 C-23.05429687 57.24371094 -23.60859375 57.73742187 -24.1796875 58.24609375 C-25.625 59.3125 -25.625 59.3125 -27.625 59.3125 C-27.625 59.9725 -27.625 60.6325 -27.625 61.3125 C-28.64851563 61.87839844 -29.67203125 62.44429687 -30.7265625 63.02734375 C-34.32306116 65.08364592 -37.66872346 67.41733071 -41 69.875 C-48.35126743 75.21267691 -55.93370989 80.16534066 -63.60449219 85.02978516 C-65.02089355 85.92898438 -66.43262952 86.8355549 -67.84082031 87.74755859 C-68.91348145 88.43519287 -68.91348145 88.43519287 -70.0078125 89.13671875 C-70.65379395 89.55397217 -71.29977539 89.97122559 -71.96533203 90.40112305 C-73.625 91.3125 -73.625 91.3125 -75.625 91.3125 C-76.12 92.7975 -76.12 92.7975 -76.625 94.3125 C-80.32085666 96.53001399 -82.25508373 97.3125 -86.625 97.3125 C-86.625 97.9725 -86.625 98.6325 -86.625 99.3125 C-89.625 101.3125 -89.625 101.3125 -92.375 102.1875 C-95.40198268 103.2353017 -97.89164085 104.60533394 -100.63671875 106.23046875 C-106.26110186 109.29128235 -112.23204891 111.63955778 -118.625 112.3125 C-118.625 112.9725 -118.625 113.6325 -118.625 114.3125 C-121.13919508 115.49565062 -123.65978674 116.65888285 -126.1875 117.8125 C-126.89197266 118.14636719 -127.59644531 118.48023438 -128.32226562 118.82421875 C-133.02197782 120.94666942 -136.47077994 121.69178558 -141.625 121.3125 C-141.17094022 116.09081259 -139.81124216 111.8349285 -137.76953125 107.015625 C-137.02174696 105.24952694 -136.3089683 103.46808329 -135.63671875 101.671875 C-133.04611322 94.92688023 -129.73412566 88.74104255 -126.125 82.5 C-125.43071899 81.29935913 -125.43071899 81.29935913 -124.72241211 80.07446289 C-121.91623446 75.30341426 -119.03103757 70.68085983 -115.625 66.3125 C-114.965 66.3125 -114.305 66.3125 -113.625 66.3125 C-113.295 64.9925 -112.965 63.6725 -112.625 62.3125 C-111.965 62.3125 -111.305 62.3125 -110.625 62.3125 C-110.356875 61.735 -110.08875 61.1575 -109.8125 60.5625 C-108.59570811 58.25699957 -107.32166121 56.29193808 -105.625 54.3125 C-104.965 54.3125 -104.305 54.3125 -103.625 54.3125 C-103.38265625 53.74660156 -103.1403125 53.18070313 -102.890625 52.59765625 C-95.84857351 39.88284105 -78.79632593 29.51220509 -66.625 22.3125 C-66.05716797 21.97589355 -65.48933594 21.63928711 -64.90429688 21.29248047 C-54.17421781 14.96058622 -43.3760287 10.42200261 -31.625 6.3125 C-30.41263672 5.87550781 -30.41263672 5.87550781 -29.17578125 5.4296875 C-27.00540874 4.66744947 -24.82833563 3.97350069 -22.625 3.3125 C-21.69945312 3.03277344 -20.77390625 2.75304687 -19.8203125 2.46484375 C-13.16488248 0.6806574 -6.8572855 0.02951289 0 0 Z " fill="#BBBFBF" transform="translate(414.625,169.6875)"/>
<path d="M0 0 C0.61359375 0.15339844 1.2271875 0.30679688 1.859375 0.46484375 C2.56578125 0.64144531 3.2721875 0.81804688 4 1 C5.33333333 1.33333333 6.66666667 1.66666667 8 2 C8 2.66 8 3.32 8 4 C8.86625 4.0825 9.7325 4.165 10.625 4.25 C14 5 14 5 16.74609375 6.88671875 C20.25720971 9.16704737 23.44709854 10.32494458 27.4375 11.5625 C31.2459305 12.75385518 34.90682257 13.95938158 38.56640625 15.5546875 C41.88892372 16.95324434 44.98078013 17.81509287 48.5 18.5625 C53.06048584 19.56191443 57.53214395 20.64925282 62 22 C62 22.66 62 23.32 62 24 C62.556875 24.04898438 63.11375 24.09796875 63.6875 24.1484375 C68.23159855 24.59363634 72.52094682 25.29308582 76.9296875 26.46875 C79.94186131 27.24168517 82.98064787 27.82852474 86.03662109 28.40087891 C88.01394735 28.80064482 89.98154375 29.2519165 91.93554688 29.75341797 C104.20389182 32.6915899 116.38825004 32.33520381 128.9375 32.1875 C131.1816316 32.17241912 133.42577305 32.15873677 135.66992188 32.14648438 C141.11349987 32.11376455 146.55670255 32.06383784 152 32 C152 38.63863683 147.3327241 42.50701241 142.953125 47.1875 C132.81470912 56.95590071 122.99395842 58.486166 109.38989258 58.34375 C102.33361072 58.16680536 102.33361072 58.16680536 100 57 C97.31237448 56.67332728 94.6314177 56.38765767 91.9375 56.125 C78.15528364 54.66488621 64.72348918 52.00803152 51.1875 49.0625 C50.06674072 48.82176758 48.94598145 48.58103516 47.79125977 48.33300781 C36.10207027 45.73675099 26.00122338 43.18134451 17 35 C16.39671875 34.48824219 15.7934375 33.97648438 15.171875 33.44921875 C7.98231007 26.92355508 0.55858028 16.30623008 -0.1953125 6.4453125 C-0.17210937 5.67960938 -0.14890625 4.91390625 -0.125 4.125 C-0.10695313 3.34382812 -0.08890625 2.56265625 -0.0703125 1.7578125 C-0.04710937 1.17773438 -0.02390625 0.59765625 0 0 Z " fill="#D4D7CC" transform="translate(300,627)"/>
<path d="M0 0 C5.80651305 0.22860288 11.07029623 0.85374201 16.5625 2.8125 C40.1219881 11.13645179 66.17884501 13.58229305 91 14 C91.99 15.98 91.99 15.98 93 18 C91.4805201 18.77349782 89.95933433 19.5436448 88.4375 20.3125 C87.52355469 20.7765625 86.60960937 21.240625 85.66796875 21.71875 C83 23 83 23 79.25 24.3125 C71.12151022 28.533062 65.77313478 39.65455155 62.98608398 48.05664062 C62.16252201 51.19185585 61.43422724 54.33156138 60.75 57.5 C60.50765625 58.55058594 60.2653125 59.60117187 60.015625 60.68359375 C58.4830111 67.42209727 57.17982939 74.19147168 56 81 C37.55773106 79.04244073 19.77981669 75.23946289 2 70 C5.93795909 68.77580837 8.16112237 69.51679728 12 71 C12.16822266 69.12828125 12.16822266 69.12828125 12.33984375 67.21875 C12.85505496 62.56640183 13.81680792 58.09394919 14.8671875 53.53686523 C19.56753888 33.50423923 19.56753888 33.50423923 15 14 C13.41754725 12.24850835 13.41754725 12.24850835 12 11 C12 10.34 12 9.68 12 9 C10.9790625 8.6596875 10.9790625 8.6596875 9.9375 8.3125 C6.3011291 6.68773854 2.97170737 4.67196743 0 2 C0 1.34 0 0.68 0 0 Z " fill="#7B8686" transform="translate(356,498)"/>
<path d="M0 0 C2.38578125 1.71093464 4.48068261 3.52629906 6.59765625 5.55859375 C7.22285156 6.12578125 7.84804688 6.69296875 8.4921875 7.27734375 C14.65953069 14.32573596 13.3813746 24.17900328 12.82763672 32.95410156 C12.13986545 40.7430017 10.69316622 48.34470965 7.59765625 55.55859375 C1.62566522 55.2714788 -3.90968505 54.23435139 -9.68359375 52.68359375 C-18.34367057 50.43837929 -27.05375412 49.06705108 -35.90234375 47.80859375 C-37.41937901 47.58667576 -38.93630686 47.36402221 -40.453125 47.140625 C-44.10167393 46.60485186 -47.75154603 46.07885169 -51.40234375 45.55859375 C-51.26721452 43.17665793 -51.12565971 40.79538896 -50.98046875 38.4140625 C-50.92463623 37.41240051 -50.92463623 37.41240051 -50.86767578 36.39050293 C-50.08973069 23.9243142 -45.91313942 9.17850476 -36.40234375 0.55859375 C-26.16967874 -7.21823166 -10.87178299 -6.5230698 0 0 Z " fill="#90999B" transform="translate(442.40234375,364.44140625)"/>
<path d="M0 0 C2.74728342 1.02349774 5.47667159 2.07127654 8.1875 3.1875 C8.1875 3.8475 8.1875 4.5075 8.1875 5.1875 C9.37666016 5.33445312 9.37666016 5.33445312 10.58984375 5.484375 C15.15237337 6.3760746 19.37172934 7.8968394 23.75 9.4375 C34.40733989 13.1037767 45.1884362 15.76926611 56.1875 18.1875 C57.57749535 22.77448465 56.5147274 25.67018673 55.1875 30.1875 C54.78613332 33.76663638 54.72925214 37.36112728 54.62109375 40.95898438 C54.43817044 45.37698007 53.82167491 49.01640033 52.1875 53.1875 C49.2175 53.1875 46.2475 53.1875 43.1875 53.1875 C43.1875 52.5275 43.1875 51.8675 43.1875 51.1875 C42.11371094 51.27773438 41.03992188 51.36796875 39.93359375 51.4609375 C33.91269334 51.45828337 28.74414697 49.06402974 23.25 46.8125 C22.19748047 46.4 21.14496094 45.9875 20.06054688 45.5625 C12.32736519 42.46723038 12.32736519 42.46723038 11.1875 40.1875 C8.87784152 39.13397157 6.5445226 38.13030904 4.1875 37.1875 C4.1875 36.5275 4.1875 35.8675 4.1875 35.1875 C1.6525964 33.72505561 0.16638599 33.18662025 -2.8125 33.0625 C-5.8125 32.1875 -5.8125 32.1875 -8.1875 29 C-11.101205 22.15217855 -11.1503715 14.09250499 -8.75390625 7.09765625 C-4.66990188 -1.34908276 -4.66990188 -1.34908276 0 0 Z " fill="#E1E4D7" transform="translate(313.8125,551.8125)"/>
<path d="M0 0 C0.226875 0.639375 0.45375 1.27875 0.6875 1.9375 C1.80357762 4.2247275 1.80357762 4.2247275 4.1875 4.5 C5.115625 4.665 6.04375 4.83 7 5 C8.20815617 5.62845792 9.39517648 6.29860389 10.5625 7 C13.24098894 8.55839357 15.01250213 9.52200034 18 10 C18 10.66 18 11.32 18 12 C18.72832031 12.11730469 19.45664062 12.23460937 20.20703125 12.35546875 C23.03522145 13.00812803 25.13519185 13.94986276 27.6875 15.3125 C35.87064795 19.51238034 44.34678008 22.52965681 53.08666992 25.33789062 C57.89718131 26.89718131 57.89718131 26.89718131 59 28 C59.10111378 30.88471653 59.13862788 33.74043131 59.125 36.625 C59.12886719 37.42035156 59.13273437 38.21570313 59.13671875 39.03515625 C59.1289035 43.79464435 58.79273149 48.30652624 58 53 C53.07872966 53.16682272 49.49656104 53.24828052 45 51 C45 50.34 45 49.68 45 49 C44.28457031 48.90203125 43.56914062 48.8040625 42.83203125 48.703125 C34.94780341 47.51998085 27.56007651 45.51189639 20 43 C20 42.34 20 41.68 20 41 C19.29875 40.89171875 18.5975 40.7834375 17.875 40.671875 C10.26895013 38.89437422 3.08072036 34.92750709 -2 29 C-2.66 28.67 -3.32 28.34 -4 28 C-5.0917931 22.65021381 -5.21134368 17.19926342 -5.375 11.75 C-5.43228271 10.70380493 -5.43228271 10.70380493 -5.49072266 9.63647461 C-5.5234375 7.609375 -5.5234375 7.609375 -5 4 C-2.4765625 1.515625 -2.4765625 1.515625 0 0 Z " fill="#E2E4D7" transform="translate(305,588)"/>
<path d="M0 0 C5.38395297 1.13346378 10.68927028 2.4353785 16 3.875 C34.06540247 8.72720225 52.1511385 12.67471362 70.8828125 13.7890625 C73 14 73 14 75 15 C76.59262066 15.15175549 78.19064856 15.24900325 79.7890625 15.31640625 C80.73007812 15.35830078 81.67109375 15.40019531 82.640625 15.44335938 C83.62546875 15.48267578 84.6103125 15.52199219 85.625 15.5625 C86.61757813 15.60568359 87.61015625 15.64886719 88.6328125 15.69335938 C91.08839838 15.79961069 93.54408703 15.90164964 96 16 C96 16.33 96 16.66 96 17 C92.04 17 88.08 17 84 17 C84 17.66 84 18.32 84 19 C82.66666667 20.33333333 81.33333333 21.66666667 80 23 C79.58814453 23.94359375 79.58814453 23.94359375 79.16796875 24.90625 C77.63279032 27.65827555 75.78237711 28.8587718 73.1875 30.625 C72.33542969 31.21539063 71.48335938 31.80578125 70.60546875 32.4140625 C60.4218643 38.61277825 45.44879463 38.55634095 33.9375 36.25 C20.62042221 32.54210775 11.035434 24.81952912 4 13 C4 12.34 4 11.68 4 11 C3.34 11 2.68 11 2 11 C0.19769832 7.17010894 -0.19622241 4.21878192 0 0 Z " fill="#4A5452" transform="translate(327,669)"/>
<path d="M0 0 C3.01980127 1.37263694 5.52941601 2.51656393 7.859375 4.91015625 C10.23891156 7.23324395 12.57181205 8.62285012 15.5 10.1875 C16.90765625 10.95126953 16.90765625 10.95126953 18.34375 11.73046875 C20.60272546 12.81012614 22.55666885 13.5217064 25 14 C25 14.66 25 15.32 25 16 C26.155 16.2475 27.31 16.495 28.5 16.75 C35.7034894 18.3456365 42.8475205 20.19213402 50 22 C50 22.66 50 23.32 50 24 C53.21170255 24.74939726 56.34612855 25.11916449 59.625 25.375 C64.28986383 25.81534113 68.5452266 26.88553425 73.0390625 28.17578125 C83.01025646 30.95140384 93.01867856 32.49007932 103.28515625 33.5703125 C107 34 107 34 109.40649414 34.51635742 C114.0257661 35.37776924 118.68891043 35.19039511 123.375 35.1875 C124.97952026 35.1884668 124.97952026 35.1884668 126.61645508 35.18945312 C133.90752113 35.14109149 140.87540904 34.63315006 148.07421875 33.4375 C150.77157228 33.03415742 153.27876749 32.9192213 156 33 C156.99 28.545 156.99 28.545 158 24 C158.33 24 158.66 24 159 24 C159.36644578 25.55966592 159.71760862 27.12292651 160.0625 28.6875 C160.25972656 29.55761719 160.45695313 30.42773438 160.66015625 31.32421875 C161.1492792 35.17535918 160.83312306 37.806857 158.58984375 41.01953125 C158.04457031 41.61121094 157.49929688 42.20289063 156.9375 42.8125 C156.38964844 43.41707031 155.84179688 44.02164063 155.27734375 44.64453125 C154.85582031 45.09183594 154.43429687 45.53914062 154 46 C153.37722168 45.83483887 152.75444336 45.66967773 152.11279297 45.49951172 C147.78819367 44.80554073 143.56631081 44.93792869 139.1953125 45.0078125 C137.22917204 45.02535235 135.26302584 45.04225831 133.296875 45.05859375 C130.22542041 45.0893083 127.15426109 45.1245538 124.08300781 45.17138672 C111.93148934 45.34666794 100.81355443 44.98277556 89 42 C87.37722359 41.6761513 85.75263921 41.36094905 84.125 41.0625 C76.70510049 39.58609142 69.35704719 37.75818065 62 36 C62 35.34 62 34.68 62 34 C61.13375 34.04125 60.2675 34.0825 59.375 34.125 C55.8071309 33.9928567 53.36242046 33.1629731 50 32 C47.7111786 31.34415443 45.41936314 30.69868755 43.125 30.0625 C37.9656986 28.59691229 32.97021191 27.00411771 28 25 C27.154375 24.6803125 26.30875 24.360625 25.4375 24.03125 C24.550625 23.6909375 23.66375 23.350625 22.75 23 C21.94046875 22.690625 21.1309375 22.38125 20.296875 22.0625 C17.91344932 20.95996295 16.08369247 19.58411866 14 18 C12.01985568 17.27648573 10.02178685 16.59734611 8 16 C8 15.34 8 14.68 8 14 C7.236875 13.855625 6.47375 13.71125 5.6875 13.5625 C3 13 3 13 0 12 C0 13.65 0 15.3 0 17 C-3.03774488 13.96225512 -3.08204651 11.09816611 -3.25 6.9375 C-3 3 -3 3 -1.5 1 C-1.005 0.67 -0.51 0.34 0 0 Z " fill="#B1B5A9" transform="translate(300,615)"/>
<path d="M0 0 C0.33 0.66 0.66 1.32 1 2 C2.36125 1.9071875 2.36125 1.9071875 3.75 1.8125 C7.29238832 2.01686856 8.52653696 2.52653696 11 5 C11 5.66 11 6.32 11 7 C12.134375 7.268125 13.26875 7.53625 14.4375 7.8125 C16.2009375 8.4003125 16.2009375 8.4003125 18 9 C18.33 9.99 18.66 10.98 19 12 C20.89008774 12.85574154 20.89008774 12.85574154 23.25 13.375 C27.51722429 14.52433835 31.52931437 15.96381282 35.625 17.625 C40.52407244 19.55564038 44.75449003 20.69144059 50 21 C50 21.66 50 22.32 50 23 C50.78246094 23.06058594 51.56492187 23.12117187 52.37109375 23.18359375 C53.88896484 23.30927734 53.88896484 23.30927734 55.4375 23.4375 C56.95150391 23.55931641 56.95150391 23.55931641 58.49609375 23.68359375 C61 24 61 24 62 25 C63.051875 25.144375 64.10375 25.28875 65.1875 25.4375 C69 26 69 26 71.72265625 26.9375 C75.533529 28.17296768 79.30983301 28.88054802 83.25 29.5625 C90.74380165 30.87190083 90.74380165 30.87190083 93 32 C104.59599908 34.08758459 116.31558763 34.21615376 128.0625 34.25 C128.78164581 34.25508575 129.50079163 34.26017151 130.24172974 34.26541138 C138.07749585 34.30992834 145.40957931 34.11678746 153 32 C154.33237744 31.66286615 155.66547033 31.32851097 157 31 C158.97680763 35.94201908 159.43020546 39.75149341 159 45 C157.5 47 157.5 47 156 48 C155.67 46.35 155.34 44.7 155 43 C151.04 43 147.08 43 143 43 C143 43.66 143 44.32 143 45 C119.25015446 45.358759 95.74098934 44.60076193 73 37 C69.163732 36.19575094 65.31601984 35.48916931 61.4609375 34.78125 C58.54044988 34.12199772 56.60655766 33.34145018 54 32 C52.25887295 31.65934471 50.50700399 31.37098056 48.75 31.125 C44.33045951 30.37572691 40.92838024 29.22201564 37.0234375 27.0703125 C33.96756107 25.45388366 30.75956727 24.27234256 27.54296875 23.015625 C23.64406716 21.45846 19.82210562 19.73564217 16 18 C16 17.34 16 16.68 16 16 C14.824375 15.9071875 14.824375 15.9071875 13.625 15.8125 C7.63112075 14.46904431 1.47507763 12.21261645 -2 7 C-2.66 6.67 -3.32 6.34 -4 6 C-2.68 4.02 -1.36 2.04 0 0 Z " fill="#B6B9AD" transform="translate(307,582)"/>
<path d="M0 0 C0.70181396 0.00757324 1.40362793 0.01514648 2.12670898 0.02294922 C10.43399058 0.28612359 16.47158286 3.10048154 22.5546875 8.66015625 C28.05718124 14.88810315 30.26226303 21.38392055 30.3125 29.5625 C30.32667969 30.61695313 30.34085937 31.67140625 30.35546875 32.7578125 C30.125 35.4375 30.125 35.4375 28.125 37.4375 C25.125 37.6875 25.125 37.6875 22.125 37.4375 C19.66990613 34.98240613 19.88575659 34.18552903 19.75 30.8125 C19.20685253 24.33218877 17.37337921 19.57346025 12.625 15.0625 C6.69754508 11.2096543 2.16094948 10.78971428 -4.875 11.4375 C-9.4472508 12.58474974 -12.95769964 14.71542712 -15.875 18.4375 C-17.00626283 20.50609488 -18.04769155 22.59320018 -19.04296875 24.73046875 C-19.875 26.4375 -19.875 26.4375 -20.875 27.4375 C-27.595 26.7175 -27.595 26.7175 -28.875 25.4375 C-29.62993301 21.12359711 -28.63473499 18.58250669 -26.375 15 C-19.72134928 5.71620028 -11.81128351 -0.17923904 0 0 Z " fill="#60696B" transform="translate(377.875,294.5625)"/>
<path d="M0 0 C0.78568359 -0.01611328 1.57136719 -0.03222656 2.38085938 -0.04882812 C11.4297654 -0.05640043 17.47250755 4.45054481 24.0625 10.3125 C29.68025498 17.22665998 30.28519668 24.11936554 30.42578125 32.73828125 C30.30589844 33.58777344 30.18601562 34.43726563 30.0625 35.3125 C26.2121895 37.87937367 24.47680237 37.14538724 20.0625 36.3125 C20.03671875 35.45527344 20.0109375 34.59804688 19.984375 33.71484375 C19.6420592 26.81406833 19.27474651 21.88753215 15.0625 16.3125 C14.0725 15.6525 13.0825 14.9925 12.0625 14.3125 C12.0625 13.6525 12.0625 12.9925 12.0625 12.3125 C10.0825 11.9825 8.1025 11.6525 6.0625 11.3125 C6.0625 10.6525 6.0625 9.9925 6.0625 9.3125 C-5.23006303 10.0228585 -5.23006303 10.0228585 -13.9375 16.3125 C-14.94611589 17.91126349 -15.94565335 19.51577941 -16.9375 21.125 C-18.421875 23.4765625 -18.421875 23.4765625 -19.9375 25.3125 C-23.1875 26 -23.1875 26 -25.9375 25.3125 C-27.9375 23.3125 -27.9375 23.3125 -28.5 20.75 C-27.3113754 13.48618301 -21.12370942 8.13776709 -15.7109375 3.50390625 C-10.62848712 0.08948474 -5.93269606 -0.02421509 0 0 Z " fill="#5F686A" transform="translate(495.9375,320.6875)"/>
<path d="M0 0 C5.3550824 1.94150715 10.80384509 2.80211433 16.40625 3.73046875 C19.609375 4.30859375 19.609375 4.30859375 21.609375 5.30859375 C23.25359069 5.49410804 24.90362102 5.62946833 26.5546875 5.73828125 C27.54984375 5.81175781 28.545 5.88523437 29.5703125 5.9609375 C31.65582745 6.10769596 33.74177384 6.24846413 35.828125 6.3828125 C42.01203866 6.85177253 46.92071429 7.83445823 52.609375 10.30859375 C54.07890625 10.88673828 54.07890625 10.88673828 55.578125 11.4765625 C56.4134375 11.81300781 57.24875 12.14945312 58.109375 12.49609375 C58.9653125 12.84027344 59.82125 13.18445313 60.703125 13.5390625 C61.3321875 13.79300781 61.96125 14.04695313 62.609375 14.30859375 C62.609375 14.96859375 62.609375 15.62859375 62.609375 16.30859375 C46.59381852 17.11484998 31.51256411 16.07081671 15.734375 13.43359375 C14.91860992 13.29862488 14.10284485 13.16365601 13.26235962 13.02459717 C10.92035493 12.63226235 8.58086497 12.22807874 6.2421875 11.81640625 C5.5442659 11.69545593 4.8463443 11.57450562 4.12727356 11.44989014 C0.40539695 10.76745011 -2.92153205 9.80948377 -6.390625 8.30859375 C-8.23835252 7.84465056 -10.09322942 7.40856039 -11.953125 6.99609375 C-18.41143346 5.43968152 -24.34087569 3.02239974 -30.390625 0.30859375 C-30.060625 -0.68140625 -29.730625 -1.67140625 -29.390625 -2.69140625 C-19.57494201 -5.96330058 -9.2701056 -3.76998534 0 0 Z " fill="#8A9596" transform="translate(388.390625,484.69140625)"/>
<path d="M0 0 C24.91234217 -1.68833644 51.0338205 4.87186145 75 11 C75.78681152 11.20012695 76.57362305 11.40025391 77.38427734 11.60644531 C89.29449481 14.68300454 89.29449481 14.68300454 94 18 C94 18.66 94 19.32 94 20 C77.95133052 20.74414233 64.32966409 19.80207949 49.08837891 14.67919922 C42.74548614 12.61631312 36.58782645 12.00281721 29.95092773 11.81982422 C18.66333681 11.46172649 10.06106863 8.14232397 0 3 C0 2.01 0 1.02 0 0 Z " fill="#8B9697" transform="translate(370,419)"/>
<path d="M0 0 C12.58182168 4.0339753 25.98253651 6.25342744 39.1796875 6.86425781 C46.73877886 7.29040793 55.73419269 9.43021371 61.45703125 14.59472656 C61.98425781 15.19929688 62.51148438 15.80386719 63.0546875 16.42675781 C47.75757705 21.52579463 29.55142396 15.77150917 14.73828125 11.46191406 C6.20913218 9.07754833 -2.24161177 8.80427947 -11.05102539 8.58447266 C-12.9453125 8.42675781 -12.9453125 8.42675781 -15.9453125 7.42675781 C-15.9453125 6.76675781 -15.9453125 6.10675781 -15.9453125 5.42675781 C-16.95851563 5.26240234 -16.95851563 5.26240234 -17.9921875 5.09472656 C-18.88421875 4.93617188 -19.77625 4.77761719 -20.6953125 4.61425781 C-21.57703125 4.4634375 -22.45875 4.31261719 -23.3671875 4.15722656 C-26.18928702 3.3576317 -27.83805281 2.46016494 -29.9453125 0.42675781 C-29.9453125 -0.56324219 -29.9453125 -1.55324219 -29.9453125 -2.57324219 C-19.7694829 -5.96518539 -9.77966912 -3.21038204 0 0 Z " fill="#8B9698" transform="translate(391.9453125,463.5732421875)"/>
<path d="M0 0 C10.93476792 4.36891412 23.31898383 5.40554648 34.921875 6.8671875 C44.67823044 8.10229788 54.14194622 9.69964267 62.421875 15.3671875 C62.421875 16.0271875 62.421875 16.6871875 62.421875 17.3671875 C33.5573235 18.17921773 33.5573235 18.17921773 21.421875 13.3671875 C17.17303899 11.80331438 13.26503001 10.97868047 8.765625 10.5078125 C7.50129639 10.364646 6.23696777 10.22147949 4.93432617 10.07397461 C4.27741791 10.00000458 3.62050964 9.92603455 2.94369507 9.849823 C-20.21596537 7.18501656 -20.21596537 7.18501656 -28.578125 1.3671875 C-28.908125 0.3771875 -29.238125 -0.6128125 -29.578125 -1.6328125 C-19.4235971 -5.50120408 -9.66376803 -4.52509773 0 0 Z " fill="#8A9496" transform="translate(396.578125,442.6328125)"/>
<path d="M0 0 C5.80651305 0.22860288 11.07029623 0.85374201 16.5625 2.8125 C40.1219881 11.13645179 66.17884501 13.58229305 91 14 C91.99 15.98 91.99 15.98 93 18 C87.0827312 22.00472299 80.93741277 21.41560581 74 21.3125 C72.78989258 21.3026709 71.57978516 21.2928418 70.33300781 21.28271484 C59.5017125 21.12681646 49.40199158 20.20061279 39 17 C37.43960424 16.69727772 35.87682284 16.40672639 34.3125 16.125 C29.29138592 15.16530694 24.57559361 13.6055171 19.76171875 11.90234375 C17.0843325 10.94409089 17.0843325 10.94409089 14.5390625 10.625 C11.07371616 9.77199167 8.63597082 8.05334782 5.6875 6.0625 C4.61886719 5.35222656 3.55023438 4.64195312 2.44921875 3.91015625 C1.64097656 3.27980469 0.83273437 2.64945312 0 2 C0 1.34 0 0.68 0 0 Z " fill="#8B9596" transform="translate(356,498)"/>
<path d="M0 0 C3.02185127 1.37356876 5.53019354 2.51637571 7.859375 4.9140625 C10.24005528 7.23392248 12.56200733 8.58336099 15.5 10.125 C16.90765625 10.87136719 16.90765625 10.87136719 18.34375 11.6328125 C20.55511137 12.77101321 22.7713215 13.89617338 25 15 C24.34 15 23.68 15 23 15 C22.67 17.31 22.34 19.62 22 22 C17.25981099 20.16508812 12.63586749 18.08058541 8 16 C8 15.34 8 14.68 8 14 C7.236875 13.855625 6.47375 13.71125 5.6875 13.5625 C3 13 3 13 0 12 C0 13.65 0 15.3 0 17 C-3.03774488 13.96225512 -3.08204651 11.09816611 -3.25 6.9375 C-3 3 -3 3 -1.5 1 C-1.005 0.67 -0.51 0.34 0 0 Z " fill="#BEC2B6" transform="translate(300,615)"/>
<path d="M0 0 C0.33 0 0.66 0 1 0 C1.02505615 0.71655762 1.0501123 1.43311523 1.07592773 2.17138672 C1.19169751 5.40611514 1.31450969 8.64053841 1.4375 11.875 C1.47681641 13.00292969 1.51613281 14.13085938 1.55664062 15.29296875 C1.59853516 16.36933594 1.64042969 17.44570313 1.68359375 18.5546875 C1.72025146 19.54968262 1.75690918 20.54467773 1.79467773 21.56982422 C1.84959532 24.00779501 1.84959532 24.00779501 3 26 C3.22010789 27.66428333 3.39096902 29.33524067 3.53515625 31.0078125 C3.62216797 31.99394531 3.70917969 32.98007812 3.79882812 33.99609375 C3.88583984 35.02863281 3.97285156 36.06117188 4.0625 37.125 C4.15337891 38.16527344 4.24425781 39.20554687 4.33789062 40.27734375 C4.56222369 42.85127048 4.78276775 45.42546585 5 48 C5.99 48 6.98 48 8 48 C7.814375 49.299375 7.62875 50.59875 7.4375 51.9375 C6.88115963 56.80547826 7.30850572 61.15954005 8 66 C7.34 65.67 6.68 65.34 6 65 C5.4375 62.98144531 5.4375 62.98144531 5 60.328125 C4.835 59.35230469 4.67 58.37648438 4.5 57.37109375 C4.335 56.34113281 4.17 55.31117188 4 54.25 C3.7525 52.77466797 3.7525 52.77466797 3.5 51.26953125 C3.16086436 49.23206793 2.83024476 47.19317227 2.50732422 45.15307617 C2.16992669 43.05611322 1.81224236 40.96231098 1.43408203 38.87231445 C-0.02914231 30.4292897 -0.23752337 22.2436039 -0.125 13.6875 C-0.11493218 12.34961621 -0.10581316 11.01172493 -0.09765625 9.67382812 C-0.07437244 6.44902038 -0.0416741 3.22461346 0 0 Z " fill="#596772" transform="translate(244,328)"/>
<path d="M0 0 C0.33 0 0.66 0 1 0 C1.25417629 3.4569756 1.47407622 6.91528826 1.6875 10.375 C1.76033203 11.35984375 1.83316406 12.3446875 1.90820312 13.359375 C1.96298828 14.30039062 2.01777344 15.24140625 2.07421875 16.2109375 C2.13182373 17.08024902 2.18942871 17.94956055 2.2487793 18.84521484 C2.16668213 19.55629395 2.08458496 20.26737305 2 21 C1.01 21.66 0.02 22.32 -1 23 C-1.33 21.35 -1.66 19.7 -2 18 C-2.33 18 -2.66 18 -3 18 C-3.55353075 5.33029613 -3.55353075 5.33029613 0 0 Z " fill="#334353" transform="translate(299,594)"/>
<path d="M0 0 C0.33 0 0.66 0 1 0 C3.18832317 9.79885256 3.30889933 19.42065624 3.26074219 29.40307617 C3.24989457 32.0886019 3.26075736 34.77347726 3.2734375 37.45898438 C3.27211798 39.17187647 3.26955989 40.88476817 3.265625 42.59765625 C3.26967346 43.39760513 3.27372192 44.19755402 3.27789307 45.02174377 C3.24517513 48.87177175 3.1856493 50.72152606 1 54 C1 41.79 1 29.58 1 17 C0.67 17 0.34 17 0 17 C0 11.39 0 5.78 0 0 Z " fill="#5F6F79" transform="translate(624,306)"/>
<path d="M0 0 C0.66 0 1.32 0 2 0 C2.964851 2.55743639 3.17207225 3.61388666 2.0390625 6.15625 C1.57242187 6.9296875 1.10578125 7.703125 0.625 8.5 C-2.46486419 14.23465099 -2.87842995 19.56783893 -3 26 C-3.33 26 -3.66 26 -4 26 C-4.74805717 18.97360585 -5.13794954 12.06608191 -5 5 C-3.68 5 -2.36 5 -1 5 C-0.67 3.35 -0.34 1.7 0 0 Z " fill="#263747" transform="translate(307,548)"/>
<path d="M0 0 C4.07502794 -0.07420211 8.14979392 -0.1286257 12.2253418 -0.16479492 C13.61147919 -0.17987397 14.99756894 -0.2003405 16.38354492 -0.22631836 C18.37658146 -0.26273716 20.36996723 -0.27813018 22.36328125 -0.29296875 C23.56251221 -0.3086792 24.76174316 -0.32438965 25.99731445 -0.34057617 C29 0 29 0 30.89648438 1.30859375 C32.73455524 4.12588468 32.27807108 6.89675088 32.1875 10.1875 C32.14689453 12.09595703 32.14689453 12.09595703 32.10546875 14.04296875 C32.07066406 15.01878906 32.03585937 15.99460937 32 17 C31.67 17 31.34 17 31 17 C31 13.7 31 10.4 31 7 C30.34 7 29.68 7 29 7 C28.34 5.68 27.68 4.36 27 3 C26.01 3.495 26.01 3.495 25 4 C24.34 3.34 23.68 2.68 23 2 C20.57753405 1.62904292 20.57753405 1.62904292 17.7734375 1.5859375 C16.2265625 1.52792969 16.2265625 1.52792969 14.6484375 1.46875 C13.02808594 1.42234375 13.02808594 1.42234375 11.375 1.375 C10.28703125 1.33632813 9.1990625 1.29765625 8.078125 1.2578125 C5.38558835 1.16333753 2.69306243 1.07777569 0 1 C0 0.67 0 0.34 0 0 Z " fill="#AAB3B0" transform="translate(439,583)"/>
<path d="M0 0 C1.72985242 0.11512153 3.45888751 0.24255677 5.1875 0.375 C6.15042969 0.44460938 7.11335938 0.51421875 8.10546875 0.5859375 C11.01508938 1.00215853 13.32890774 1.79874096 16 3 C14.35 4.32 12.7 5.64 11 7 C11.33 7.66 11.66 8.32 12 9 C7.50985376 7.50328459 3.52151236 5.16631659 0 2 C0 1.34 0 0.68 0 0 Z " fill="#818C8F" transform="translate(356,498)"/>
<path d="M0 0 C1.71389766 5.54281797 -0.51034111 10.02068223 -3 15 C-3.144375 15.86625 -3.28875 16.7325 -3.4375 17.625 C-4 20 -4 20 -7 22 C-8.00805555 24.17897492 -8.00805555 24.17897492 -8.6875 26.625 C-8.93886719 27.44226563 -9.19023437 28.25953125 -9.44921875 29.1015625 C-9.63097656 29.72804688 -9.81273437 30.35453125 -10 31 C-10.33 31 -10.66 31 -11 31 C-11.25619774 26.35381932 -10.54700695 23.18858521 -8.6875 18.9375 C-8.25824219 17.93589844 -7.82898438 16.93429687 -7.38671875 15.90234375 C-6 13 -6 13 -4.4375 10.3984375 C-3.10931118 8.18238332 -2.17620082 6.11408801 -1.3125 3.6875 C-0.6628125 1.8621875 -0.6628125 1.8621875 0 0 Z " fill="#66737C" transform="translate(263,257)"/>
<path d="M0 0 C2.4120667 0.52593936 4.65207188 1.21735729 7 2 C7 2.33 7 2.66 7 3 C5.2984375 3.2165625 5.2984375 3.2165625 3.5625 3.4375 C0.19222799 3.61171478 0.19222799 3.61171478 -1 5 C-3.19050021 4.90982004 -5.378466 4.75333792 -7.5625 4.5625 C-8.76003906 4.46066406 -9.95757812 4.35882812 -11.19140625 4.25390625 C-12.11824219 4.17011719 -13.04507812 4.08632813 -14 4 C-8.96588515 0.64392343 -6.05219117 -0.57429551 0 0 Z " fill="#474E4A" transform="translate(368,679)"/>
<path d="M0 0 C0.66 0.33 1.32 0.66 2 1 C1.43447641 4.28003681 0.67167078 5.97321527 -2 8 C-2.928125 8.268125 -3.85625 8.53625 -4.8125 8.8125 C-9.03675701 10.38624281 -10.89942871 12.75849365 -14 16 C-14.66 16 -15.32 16 -16 16 C-15.90234375 14.3203125 -15.90234375 14.3203125 -15 12 C-12.88612455 10.15359451 -10.82853105 8.50848121 -8.5625 6.875 C-4.10488879 3.64921117 -4.10488879 3.64921117 0 0 Z " fill="#2C3D4B" transform="translate(555,488)"/>
<path d="M0 0 C0.042721 1.66611905 0.04063832 3.33382885 0 5 C-0.33 5.33 -0.66 5.66 -1 6 C-1.37052339 11.17735677 -1.37052339 11.17735677 0 16 C0.039992 17.99960012 0.04346799 20.00047242 0 22 C-3.01241138 19.62928572 -3.93316286 18.52549931 -4.42578125 14.65234375 C-4.38839844 13.42644531 -4.35101563 12.20054687 -4.3125 10.9375 C-4.28800781 9.70902344 -4.26351563 8.48054687 -4.23828125 7.21484375 C-4 4 -4 4 -3 1 C-1 0 -1 0 0 0 Z " fill="#C7CFCF" transform="translate(308,558)"/>
<path d="M0 0 C0.33 0.99 0.66 1.98 1 3 C-1.34984756 5.37930563 -3.70566578 7.75261645 -6.0625 10.125 C-7.04766602 11.12273437 -7.04766602 11.12273437 -8.05273438 12.140625 C-12.20728805 16.31564446 -16.47827879 20.22503899 -21 24 C-21.66 23.67 -22.32 23.34 -23 23 C-22.49025635 22.52578613 -21.9805127 22.05157227 -21.45532227 21.56298828 C-19.15497133 19.41991508 -16.8586973 17.27252265 -14.5625 15.125 C-13.35883789 14.00544922 -13.35883789 14.00544922 -12.13085938 12.86328125 C-11.36708984 12.14785156 -10.60332031 11.43242187 -9.81640625 10.6953125 C-9.10943604 10.03547363 -8.40246582 9.37563477 -7.67407227 8.69580078 C-5.91579306 7.0900064 -5.91579306 7.0900064 -5 5 C-4.34 5 -3.68 5 -3 5 C-2.690625 4.360625 -2.38125 3.72125 -2.0625 3.0625 C-1 1 -1 1 0 0 Z " fill="#9BA4A3" transform="translate(419,199)"/>
<path d="M0 0 C0.33 0 0.66 0 1 0 C2.20731692 8.68836995 3.38064163 17.20294908 3 26 C3.99 26 4.98 26 6 26 C5.67 27.65 5.34 29.3 5 31 C3.68 30.67 2.36 30.34 1 30 C-0.19148936 9.46808511 -0.19148936 9.46808511 0 0 Z " fill="#6A7A7E" transform="translate(310,520)"/>
<path d="M0 0 C-7.38097036 3.59424689 -13.47028513 4.53307421 -21.625 4.25 C-22.62917969 4.23195313 -23.63335937 4.21390625 -24.66796875 4.1953125 C-27.11302652 4.14873997 -29.55596812 4.08337028 -32 4 C-32 3.67 -32 3.34 -32 3 C-25.07 3 -18.14 3 -11 3 C-11 2.01 -11 1.02 -11 0 C-4.03571429 -2.41071429 -4.03571429 -2.41071429 0 0 Z " fill="#ACB5B7" transform="translate(434,681)"/>
<path d="M0 0 C0.33 0.99 0.66 1.98 1 3 C0.67 3.66 0.34 4.32 0 5 C-0.66 5 -1.32 5 -2 5 C-2.33 6.32 -2.66 7.64 -3 9 C-3.58265625 9.07089844 -4.1653125 9.14179688 -4.765625 9.21484375 C-7.81982254 10.28808449 -8.85453711 11.97446413 -10.75 14.5625 C-11.36359375 15.38878906 -11.9771875 16.21507812 -12.609375 17.06640625 C-13.06828125 17.70449219 -13.5271875 18.34257812 -14 19 C-14.66 18.67 -15.32 18.34 -16 18 C-10.95630444 11.67536589 -5.89401276 5.55288018 0 0 Z " fill="#758189" transform="translate(299,207)"/>
<path d="M0 0 C0 8.32411666 -5.18818099 16.79816162 -9 24 C-10.87123945 19.14863845 -8.44479624 15.5523914 -6.48046875 11.0625 C-4.58796501 7.14766377 -2.42669036 3.60536854 0 0 Z " fill="#6A7576" transform="translate(436,534)"/>
<path d="M0 0 C1.5625 1.75 1.5625 1.75 3 4 C2.875 6.1875 2.875 6.1875 2 8 C1.01 8.33 0.02 8.66 -1 9 C-0.95875 10.0725 -0.9175 11.145 -0.875 12.25 C-0.85456462 17.93103623 -1.96081769 23.43295193 -3 29 C-3.33 29 -3.66 29 -4 29 C-4.14482458 23.37702837 -3.69406313 18.31242311 -2.5625 12.8125 C-2.42779297 12.12736328 -2.29308594 11.44222656 -2.15429688 10.73632812 C-1.77674435 8.82278143 -1.38870728 6.91131198 -1 5 C-0.80277344 4.01386719 -0.60554687 3.02773438 -0.40234375 2.01171875 C-0.26957031 1.34785156 -0.13679687 0.68398438 0 0 Z " fill="#5B6C74" transform="translate(249,296)"/>
<path d="M0 0 C1.15680267 0.00212242 1.15680267 0.00212242 2.3369751 0.00428772 C4.79239838 0.00987091 7.24772942 0.0224203 9.703125 0.03515625 C11.37109243 0.04017342 13.03906129 0.04473595 14.70703125 0.04882812 C18.78909787 0.05983484 22.87109581 0.07708789 26.953125 0.09765625 C26.953125 0.42765625 26.953125 0.75765625 26.953125 1.09765625 C25.48504395 1.13524048 25.48504395 1.13524048 23.98730469 1.17358398 C20.34931796 1.26789608 16.71151157 1.36805828 13.07373047 1.4699707 C11.50053126 1.51322963 9.92728783 1.55491099 8.35400391 1.5949707 C6.09003385 1.65289287 3.82628449 1.71652339 1.5625 1.78125 C0.86131042 1.79796249 0.16012085 1.81467499 -0.56231689 1.83189392 C-3.27675995 1.91387694 -5.76976378 2.0216435 -8.39746094 2.74243164 C-9.2139209 2.91826782 -9.2139209 2.91826782 -10.046875 3.09765625 C-10.706875 2.43765625 -11.366875 1.77765625 -12.046875 1.09765625 C-8.09573952 -0.20585762 -4.10862757 -0.02846656 0 0 Z " fill="#687781" transform="translate(426.046875,148.90234375)"/>
<path d="M0 0 C0.74958984 0.00451172 1.49917969 0.00902344 2.27148438 0.01367188 C4.11852383 0.02543646 5.96552213 0.04337135 7.8125 0.0625 C7.8125 0.3925 7.8125 0.7225 7.8125 1.0625 C1.3775 1.5575 1.3775 1.5575 -5.1875 2.0625 C-4.8575 2.7225 -4.5275 3.3825 -4.1875 4.0625 C-4.5175 4.7225 -4.8475 5.3825 -5.1875 6.0625 C-7.4975 5.4025 -9.8075 4.7425 -12.1875 4.0625 C-11.8575 3.0725 -11.5275 2.0825 -11.1875 1.0625 C-7.42449626 -0.19183458 -3.91539091 -0.04445422 0 0 Z " fill="#758184" transform="translate(370.1875,480.9375)"/>
<path d="M0 0 C0.33 0 0.66 0 1 0 C1.25373128 4.31343181 1.42037032 7.93801182 -0.1875 12 C-2.50619546 14.55856051 -3.57141672 14.77142778 -7 15 C-9.67282419 15.0596169 -12.32532363 15.0453335 -15 15 C-15 14.67 -15 14.34 -15 14 C-13.1746875 13.5978125 -13.1746875 13.5978125 -11.3125 13.1875 C-7.40864459 12.21845788 -3.90698203 10.90698203 -1 8 C-0.76924918 6.65252916 -0.58846937 5.29622435 -0.4375 3.9375 C-0.293125 2.638125 -0.14875 1.33875 0 0 Z " fill="#6A7779" transform="translate(461,513)"/>
<path d="M0 0 C0.99 0.66 1.98 1.32 3 2 C2.23757784 5.61055091 0.87526626 8.85834625 -0.5625 12.25 C-1.01753906 13.32765625 -1.47257813 14.4053125 -1.94140625 15.515625 C-2.29074219 16.33546875 -2.64007812 17.1553125 -3 18 C-4.66285211 14.67429578 -2.98079852 11.31639055 -2.0625 7.875 C-1.86720703 7.12089844 -1.67191406 6.36679687 -1.47070312 5.58984375 C-0.98676642 3.72491694 -0.49419231 1.86223541 0 0 Z " fill="#637077" transform="translate(609,408)"/>
<path d="M0 0 C0.433125 0.474375 0.86625 0.94875 1.3125 1.4375 C3.02309613 3.23686957 3.02309613 3.23686957 6 4 C6.66 7.63 7.32 11.26 8 15 C7.34 15 6.68 15 6 15 C4.66666667 12.33333333 3.33333333 9.66666667 2 7 C1.62617188 6.31421875 1.25234375 5.6284375 0.8671875 4.921875 C0 3 0 3 0 0 Z " fill="#707F85" transform="translate(297,477)"/>
<path d="M0 0 C-0.33 0.66 -0.66 1.32 -1 2 C-2.32 2 -3.64 2 -5 2 C-5.33 2.66 -5.66 3.32 -6 4 C-9.96 4 -13.92 4 -18 4 C-13.39829283 -0.60170717 -6.11199681 -0.2182856 0 0 Z " fill="#6A7B83" transform="translate(405,152)"/>
<path d="M0 0 C4.875 1.75 4.875 1.75 6 4 C3.05868109 4.98043964 1.17498335 5.11621202 -1.88671875 5.09765625 C-2.82451172 5.09443359 -3.76230469 5.09121094 -4.72851562 5.08789062 C-5.70498047 5.07951172 -6.68144531 5.07113281 -7.6875 5.0625 C-9.16959961 5.05573242 -9.16959961 5.05573242 -10.68164062 5.04882812 C-13.12115474 5.03704303 -15.56054689 5.02059011 -18 5 C-18 4.67 -18 4.34 -18 4 C-12.06 3.67 -6.12 3.34 0 3 C0 2.01 0 1.02 0 0 Z " fill="#828D8F" transform="translate(449,476)"/>
<path d="M0 0 C0.66 0.33 1.32 0.66 2 1 C1.690625 1.639375 1.38125 2.27875 1.0625 2.9375 C-0.31935403 6.92049104 -0.6536543 10.81650849 -1 15 C-3.40083162 10.7244154 -3.38567358 7.85948709 -3 3 C-1.5 1 -1.5 1 0 0 Z " fill="#9EAAAA" transform="translate(300,615)"/>
<path d="M0 0 C1.32 0.33 2.64 0.66 4 1 C1.03 3.64 -1.94 6.28 -5 9 C-5.99 8.67 -6.98 8.34 -8 8 C-3.375 2.25 -3.375 2.25 0 0 Z " fill="#899495" transform="translate(409,363)"/>
<path d="M0 0 C0 0.33 0 0.66 0 1 C-6.435 1.495 -6.435 1.495 -13 2 C-13 2.66 -13 3.32 -13 4 C-16.72908331 3.49800802 -20.36147686 2.95792977 -24 2 C-16.09388645 -0.63537118 -8.23134837 -0.17981101 0 0 Z " fill="#526063" transform="translate(432,346)"/>
<path d="M0 0 C0.66 0.33 1.32 0.66 2 1 C0 4 0 4 -3 5 C-2.67 5.66 -2.34 6.32 -2 7 C-3.1446875 6.9071875 -3.1446875 6.9071875 -4.3125 6.8125 C-7.04525312 6.74101915 -7.04525312 6.74101915 -8.8125 8.5 C-9.204375 8.995 -9.59625 9.49 -10 10 C-10.66 9.34 -11.32 8.68 -12 8 C-8.04 5.36 -4.08 2.72 0 0 Z " fill="#6F7D84" transform="translate(342,173)"/>
<path d="M0 0 C4.95 0 9.9 0 15 0 C15.66 1.32 16.32 2.64 17 4 C16.01 4.66 15.02 5.32 14 6 C13.01 5.67 12.02 5.34 11 5 C11.66 4.01 12.32 3.02 13 2 C8.71 1.67 4.42 1.34 0 1 C0 0.67 0 0.34 0 0 Z " fill="#768182" transform="translate(432,512)"/>
<path d="M0 0 C3.26954202 0.56371414 4.82575883 1.49962266 7 4 C4.625 5.5625 4.625 5.5625 2 7 C1.34 6.67 0.68 6.34 0 6 C0 4.02 0 2.04 0 0 Z " fill="#DFE4DB" transform="translate(300,627)"/>
<path d="M0 0 C1.83832664 3.10217621 2.47446226 5.39408679 2 9 C1.01 9.66 0.02 10.32 -1 11 C-2 10 -2 10 -2.1875 7.1875 C-2.00782439 4.13301456 -1.57664404 2.56204656 0 0 Z " fill="#34424E" transform="translate(466,608)"/>
<path d="M0 0 C2.48935591 0.78930797 4.669779 1.8348895 7 3 C7 3.66 7 4.32 7 5 C3.7 5 0.4 5 -3 5 C-3 4.01 -3 3.02 -3 2 C-2.01 1.34 -1.02 0.68 0 0 Z " fill="#849295" transform="translate(457,434)"/>
<path d="M0 0 C0.99 0.33 1.98 0.66 3 1 C1.93359375 3.48828125 1.93359375 3.48828125 0.8671875 5.9765625 C0.58101563 6.64429688 0.29484375 7.31203125 0 8 C-0.5625 9.3125 -1.125 10.625 -1.6875 11.9375 C-2.120625 12.948125 -2.55375 13.95875 -3 15 C-4.43410153 11.21180727 -3.51009497 8.93478721 -2.0625 5.25 C-1.49208984 3.77273438 -1.49208984 3.77273438 -0.91015625 2.265625 C-0.60980469 1.51796875 -0.30945313 0.7703125 0 0 Z " fill="#495758" transform="translate(385,370)"/>
<path d="M0 0 C0.66 0.99 1.32 1.98 2 3 C1.01 3.33 0.02 3.66 -1 4 C-1 4.99 -1 5.98 -1 7 C-0.34 7.33 0.32 7.66 1 8 C-0.3125 9.5 -0.3125 9.5 -2 11 C-2.99 11 -3.98 11 -5 11 C-3.77472971 6.94718288 -2.30119506 3.55639236 0 0 Z " fill="#707C84" transform="translate(269,246)"/>
<path d="M0 0 C2.93774463 -0.05390357 5.87450232 -0.0936255 8.8125 -0.125 C10.06256836 -0.15013672 10.06256836 -0.15013672 11.33789062 -0.17578125 C12.14033203 -0.18222656 12.94277344 -0.18867188 13.76953125 -0.1953125 C14.50792236 -0.20578613 15.24631348 -0.21625977 16.00708008 -0.22705078 C18 0 18 0 21 2 C21 2.66 21 3.32 21 4 C19.68 4 18.36 4 17 4 C16.67 3.34 16.34 2.68 16 2 C13.28553021 1.68758545 10.66090639 1.48663408 7.9375 1.375 C6.79958008 1.31699219 6.79958008 1.31699219 5.63867188 1.2578125 C3.75952805 1.16326438 1.87979664 1.08053244 0 1 C0 0.67 0 0.34 0 0 Z " fill="#A8B0B1" transform="translate(405,170)"/>
<path d="M0 0 C0.33 0 0.66 0 1 0 C1.06058594 0.90363281 1.12117188 1.80726563 1.18359375 2.73828125 C1.26738281 3.91777344 1.35117187 5.09726562 1.4375 6.3125 C1.51871094 7.48425781 1.59992188 8.65601563 1.68359375 9.86328125 C1.8867371 13.02590958 1.8867371 13.02590958 3 16 C2.72230092 18.3406065 2.39460023 20.67624308 2 23 C1.67 23 1.34 23 1 23 C0.13190561 17.79826905 -0.12515348 12.83021184 -0.0625 7.5625 C-0.05798828 6.83095703 -0.05347656 6.09941406 -0.04882812 5.34570312 C-0.03718148 3.56376581 -0.01925191 1.78187137 0 0 Z " fill="#B9C2C4" transform="translate(300,592)"/>
<path d="M0 0 C0.53625 0.268125 1.0725 0.53625 1.625 0.8125 C0.635 1.1425 -0.355 1.4725 -1.375 1.8125 C-3.08355022 4.81257271 -3.08355022 4.81257271 -4.375 7.8125 C-4.705 7.1525 -5.035 6.4925 -5.375 5.8125 C-7.85 7.2975 -7.85 7.2975 -10.375 8.8125 C-8.77644306 4.49639627 -4.93422816 -0.38954433 0 0 Z " fill="#889190" transform="translate(371.375,306.1875)"/>
<path d="M0 0 C0.66 0.33 1.32 0.66 2 1 C1.21625 1.7425 0.4325 2.485 -0.375 3.25 C-3.00612679 5.73654809 -3.00612679 5.73654809 -4.125 8.25 C-4.41375 8.8275 -4.7025 9.405 -5 10 C-5.99 10.33 -6.98 10.66 -8 11 C-8.66 10.67 -9.32 10.34 -10 10 C-7.02911382 6.00073014 -3.87051275 3.07881696 0 0 Z " fill="#748188" transform="translate(310,196)"/>
<path d="M0 0 C0.66 0.33 1.32 0.66 2 1 C0.25 6.75 0.25 6.75 -2 9 C-2.66 7.02 -3.32 5.04 -4 3 C-2.68 2.01 -1.36 1.02 0 0 Z " fill="#C0C9C4" transform="translate(466,603)"/>
<path d="M0 0 C-1.29299694 2.88437779 -2.65941363 4.87219421 -5 7 C-7.475 6.01 -7.475 6.01 -10 5 C-3.63636364 0 -3.63636364 0 0 0 Z " fill="#738085" transform="translate(354,168)"/>
<path d="M0 0 C0.99 0.33 1.98 0.66 3 1 C2.34 2.32 1.68 3.64 1 5 C1.66 5.33 2.32 5.66 3 6 C1.71034824 7.37562854 0.37310707 8.70766393 -1 10 C-1.66 10 -2.32 10 -3 10 C-2.69201674 8.51988629 -2.378482 7.04092675 -2.0625 5.5625 C-1.88847656 4.73878906 -1.71445312 3.91507813 -1.53515625 3.06640625 C-1 1 -1 1 0 0 Z " fill="#293A49" transform="translate(474,567)"/>
<path d="M0 0 C1.32 0.33 2.64 0.66 4 1 C3.34 1 2.68 1 2 1 C1.7525 1.78375 1.505 2.5675 1.25 3.375 C-0.17491464 6.36732074 -0.97767187 6.86662695 -4 8 C-4.99 8.495 -4.99 8.495 -6 9 C-4.47291037 5.56404834 -2.40072955 2.88087546 0 0 Z " fill="#445152" transform="translate(432,523)"/>
<path d="M0 0 C3.63 0.33 7.26 0.66 11 1 C9.02 1.99 9.02 1.99 7 3 C6.67 3.66 6.34 4.32 6 5 C4 4 2 3 0 2 C0 1.34 0 0.68 0 0 Z " fill="#778587" transform="translate(356,498)"/>
<path d="M0 0 C0.33 1.32 0.66 2.64 1 4 C-1.3125 6.0625 -1.3125 6.0625 -4 8 C-4.99 7.67 -5.98 7.34 -7 7 C-2.25 1.125 -2.25 1.125 0 0 Z " fill="#334350" transform="translate(570,474)"/>
<path d="M0 0 C-1.38188453 3.21043882 -2.92421903 5.04936365 -5.625 7.25 C-6.57246094 8.03117188 -6.57246094 8.03117188 -7.5390625 8.828125 C-8.02117187 9.21484375 -8.50328125 9.6015625 -9 10 C-8.42110619 6.71245489 -7.45171589 5.06327505 -5.0625 2.75 C-4.53785156 2.22921875 -4.01320313 1.7084375 -3.47265625 1.171875 C-2 0 -2 0 0 0 Z " fill="#2F3F4C" transform="translate(301,204)"/>
<path d="M0 0 C1.77049689 -0.05410687 3.54146849 -0.09284119 5.3125 -0.125 C6.29863281 -0.14820313 7.28476562 -0.17140625 8.30078125 -0.1953125 C11 0 11 0 14 2 C8.06 2.495 8.06 2.495 2 3 C1.34 2.01 0.68 1.02 0 0 Z " fill="#6E7E85" transform="translate(453,150)"/>
<path d="M0 0 C-0.99 0.33 -1.98 0.66 -3 1 C-3 1.66 -3 2.32 -3 3 C-1.68 3.33 -0.36 3.66 1 4 C-2.96 4 -6.92 4 -11 4 C-4.625 -0.25 -4.625 -0.25 0 0 Z " fill="#3E4544" transform="translate(365,679)"/>
<path d="M0 0 C-1.66751148 3.94139078 -4.22710649 6.7892812 -7 10 C-7.66 9.67 -8.32 9.34 -9 9 C-9 8.34 -9 7.68 -9 7 C-8.01 7 -7.02 7 -6 7 C-6 6.34 -6 5.68 -6 5 C-5.34 5 -4.68 5 -4 5 C-4 3.68 -4 2.36 -4 1 C-2 0 -2 0 0 0 Z " fill="#B9C3C4" transform="translate(451,663)"/>
<path d="M0 0 C0.99 0.495 0.99 0.495 2 1 C2.625 3.5625 2.625 3.5625 3 6 C3.66 6 4.32 6 5 6 C5 8.64 5 11.28 5 14 C2.42924159 10.98552165 1.47792934 8.64020229 0.8125 4.75 C0.65394531 3.85796875 0.49539062 2.9659375 0.33203125 2.046875 C0.22246094 1.37140625 0.11289063 0.6959375 0 0 Z " fill="#6F7E87" transform="translate(255,403)"/>
<path d="M0 0 C0.66 0 1.32 0 2 0 C2 2.64 2 5.28 2 8 C0.02 8.99 0.02 8.99 -2 10 C-1.34 6.7 -0.68 3.4 0 0 Z " fill="#1C2D3D" transform="translate(467,620)"/>
<path d="M0 0 C0.598125 0.350625 1.19625 0.70125 1.8125 1.0625 C-1.1575 3.5375 -1.1575 3.5375 -4.1875 6.0625 C-4.5175 4.0825 -4.8475 2.1025 -5.1875 0.0625 C-2.1875 -0.9375 -2.1875 -0.9375 0 0 Z " fill="#78848B" transform="translate(565.1875,476.9375)"/>
<path d="M0 0 C0.2475 0.639375 0.495 1.27875 0.75 1.9375 C1.81562433 4.18741541 1.81562433 4.18741541 4.125 4.75 C4.74375 4.8325 5.3625 4.915 6 5 C6 5.66 6 6.32 6 7 C2.04 6.67 -1.92 6.34 -6 6 C-6 5.67 -6 5.34 -6 5 C-4.35 5 -2.7 5 -1 5 C-0.67 3.35 -0.34 1.7 0 0 Z " fill="#697572" transform="translate(422,574)"/>
<path d="M0 0 C1.485 0.99 1.485 0.99 3 2 C3.66 1.67 4.32 1.34 5 1 C5 2.65 5 4.3 5 6 C4.34 6 3.68 6 3 6 C2.67 7.32 2.34 8.64 2 10 C0.68373308 6.38026598 0 3.90432869 0 0 Z " fill="#3A4B59" transform="translate(622,296)"/>
<path d="M0 0 C1.43088528 2.86177057 0.59991697 4.93375773 0 8 C-0.33 8 -0.66 8 -1 8 C-1.33 9.98 -1.66 11.96 -2 14 C-2.33 14 -2.66 14 -3 14 C-3.32374517 8.49633208 -3.53286034 4.56327794 0 0 Z " fill="#4A575D" transform="translate(462,632)"/>
<path d="M0 0 C0.66 0.99 1.32 1.98 2 3 C0.35 4.32 -1.3 5.64 -3 7 C-3.33 5.68 -3.66 4.36 -4 3 C-2.68 2.01 -1.36 1.02 0 0 Z " fill="#D2DAD7" transform="translate(305,588)"/>
<path d="M0 0 C6.75 -0.125 6.75 -0.125 9 1 C9 1.66 9 2.32 9 3 C2.25 3.125 2.25 3.125 0 2 C0 1.34 0 0.68 0 0 Z " fill="#C7CCC5" transform="translate(426,582)"/>
<path d="M0 0 C0.66 0 1.32 0 2 0 C2.75 1.6875 2.75 1.6875 3 4 C1.0625 6.75 1.0625 6.75 -1 9 C-2.0326802 6.21176345 -2.04509293 5.1322726 -1.0625 2.25 C-0.711875 1.5075 -0.36125 0.765 0 0 Z " fill="#30404D" transform="translate(307,548)"/>
<path d="M0 0 C0.99 0.33 1.98 0.66 3 1 C1.92598892 3.91517292 1.22189824 5.77810176 -1 8 C-1.625 5.6875 -1.625 5.6875 -2 3 C-1.34 2.01 -0.68 1.02 0 0 Z " fill="#2C3D4C" transform="translate(258,262)"/>
<path d="M0 0 C0.66 0.99 1.32 1.98 2 3 C0.35 4.65 -1.3 6.3 -3 8 C-3 4.42424104 -1.91159393 2.94704065 0 0 Z M3 0 C3.33 0.66 3.66 1.32 4 2 C3.34 1.67 2.68 1.34 2 1 C2.33 0.67 2.66 0.34 3 0 Z " fill="#2E404D" transform="translate(481,555)"/>
<path d="M0 0 C0.33 0.99 0.66 1.98 1 3 C-1.31 5.31 -3.62 7.62 -6 10 C-6.66 9.67 -7.32 9.34 -8 9 C-5.36 6.03 -2.72 3.06 0 0 Z " fill="#32434F" transform="translate(579,464)"/>
<path d="M0 0 C2.40072955 2.88087546 4.47291037 5.56404834 6 9 C4.125 8.6875 4.125 8.6875 2 8 C-0.1519437 4.77208445 -0.20086443 3.71599191 0 0 Z " fill="#404D58" transform="translate(304,645)"/>
<path d="M0 0 C0.66 0.66 1.32 1.32 2 2 C0.35 4.31 -1.3 6.62 -3 9 C-4 6 -4 6 -3.1875 3.375 C-2 1 -2 1 0 0 Z " fill="#6F7F84" transform="translate(491,538)"/>
<path d="M0 0 C0.6875 1.75 0.6875 1.75 1 4 C-0.4375 6.25 -0.4375 6.25 -2 8 C-3.98 7.34 -5.96 6.68 -8 6 C-8 5.67 -8 5.34 -8 5 C-7.05125 4.731875 -6.1025 4.46375 -5.125 4.1875 C-1.74732727 3.25013412 -1.74732727 3.25013412 0 0 Z " fill="#848E8F" transform="translate(479,341)"/>
<path d="M0 0 C0.33 0.66 0.66 1.32 1 2 C1.99 2 2.98 2 4 2 C3.34 3.32 2.68 4.64 2 6 C1.01 5.67 0.02 5.34 -1 5 C-0.67 3.35 -0.34 1.7 0 0 Z " fill="#C5CDCC" transform="translate(434,674)"/>
<path d="M0 0 C0.66 0.33 1.32 0.66 2 1 C1.34 2.32 0.68 3.64 0 5 C-0.33 4.01 -0.66 3.02 -1 2 C-0.67 1.34 -0.34 0.68 0 0 Z M0 5 C0 6.65 0 8.3 0 10 C-0.66 10 -1.32 10 -2 10 C-2.33 8.68 -2.66 7.36 -3 6 C-1 5 -1 5 0 5 Z " fill="#DDE4DA" transform="translate(309,640)"/>
<path d="M0 0 C1.32 0.66 2.64 1.32 4 2 C3.01 3.98 2.02 5.96 1 8 C0.34 8 -0.32 8 -1 8 C-1.33 8.66 -1.66 9.32 -2 10 C-2 9.01 -2 8.02 -2 7 C-1.34 6.67 -0.68 6.34 0 6 C0 4.02 0 2.04 0 0 Z " fill="#6C7981" transform="translate(592,440)"/>
<path d="M0 0 C1.485 0.99 1.485 0.99 3 2 C2.38722388 4.96175123 1.74627478 6.38058783 0 9 C-0.84454356 5.62182575 -1.10844919 3.32534757 0 0 Z " fill="#6D7D83" transform="translate(609,408)"/>
<path d="M0 0 C1.32 0 2.64 0 4 0 C3.67 2.31 3.34 4.62 3 7 C2.34 6.67 1.68 6.34 1 6 C0.375 2.9375 0.375 2.9375 0 0 Z " fill="#758589" transform="translate(248,376)"/>
<path d="M0 0 C3.0916909 2.52956528 3.90931332 5.22454612 5 9 C3.68 8.67 2.36 8.34 1 8 C0.67 5.36 0.34 2.72 0 0 Z " fill="#687782" transform="translate(603,246)"/>
<path d="M0 0 C2.4750171 1.11431765 4.67883419 2.58150978 7 4 C6.34 4.66 5.68 5.32 5 6 C4.01 5.67 3.02 5.34 2 5 C1.67 4.34 1.34 3.68 1 3 C0.01 2.34 -0.98 1.68 -2 1 C-1.34 0.67 -0.68 0.34 0 0 Z " fill="#7A888D" transform="translate(549,186)"/>
<path d="M0 0 C4.37934119 0.51958285 8.68803391 1.05675742 13 2 C13 2.33 13 2.66 13 3 C7.52667068 4.46845421 4.88077452 3.44038726 0 1 C0 0.67 0 0.34 0 0 Z " fill="#6F746F" transform="translate(352,676)"/>
<path d="M0 0 C1.32 1.65 2.64 3.3 4 5 C3.01 5.99 2.02 6.98 1 8 C0.26919734 6.02253397 -0.39421747 4.01927511 -1 2 C-0.67 1.34 -0.34 0.68 0 0 Z " fill="#CDD3CE" transform="translate(307,555)"/>
<path d="M0 0 C0.99 0.33 1.98 0.66 3 1 C0.63707344 3.52588702 -0.66462511 4.88820837 -4 6 C-2.84826645 3.53199953 -1.95216435 1.95216435 0 0 Z " fill="#74828A" transform="translate(523,509)"/>
<path d="M0 0 C0.66 0.66 1.32 1.32 2 2 C-0.31 3.65 -2.62 5.3 -5 7 C-3.92643531 2.70574125 -3.4915227 2.25259529 0 0 Z " fill="#748187" transform="translate(557,484)"/>
<path d="M0 0 C1.7074998 1.28062485 3.37373596 2.61767557 5 4 C5 4.66 5 5.32 5 6 C3.68 6 2.36 6 1 6 C0.67 4.02 0.34 2.04 0 0 Z " fill="#838F94" transform="translate(350,467)"/>
<path d="M0 0 C1.32 0.33 2.64 0.66 4 1 C4.33 3.31 4.66 5.62 5 8 C2.21611025 6.29374499 1.14615794 5.52373261 0.25 2.3125 C0.1675 1.549375 0.085 0.78625 0 0 Z " fill="#697A7E" transform="translate(292,469)"/>
<path d="M0 0 C0.99 0.495 0.99 0.495 2 1 C2 1.99 2 2.98 2 4 C2.66 4 3.32 4 4 4 C4 4.99 4 5.98 4 7 C4.66 7.33 5.32 7.66 6 8 C5.34 8.66 4.68 9.32 4 10 C1.16625119 6.79663178 0.4794463 4.21912747 0 0 Z " fill="#6A7A83" transform="translate(260,417)"/>
<path d="M0 0 C0.33 0.66 0.66 1.32 1 2 C-0.32 3.65 -1.64 5.3 -3 7 C-3.66 6.67 -4.32 6.34 -5 6 C-2.25 1.125 -2.25 1.125 0 0 Z " fill="#243843" transform="translate(491,543)"/>
<path d="M0 0 C0 1.98 0 3.96 0 6 C-0.66 6 -1.32 6 -2 6 C-2.66 4.35 -3.32 2.7 -4 1 C-2 0 -2 0 0 0 Z " fill="#253743" transform="translate(311,544)"/>
<path d="M0 0 C2 1.8125 2 1.8125 4 4 C4 4.99 4 5.98 4 7 C2.68 6.67 1.36 6.34 0 6 C0 4.02 0 2.04 0 0 Z " fill="#384755" transform="translate(272,441)"/>
<path d="M0 0 C0.66 0.66 1.32 1.32 2 2 C1.625 4.625 1.625 4.625 1 7 C0.01 7.33 -0.98 7.66 -2 8 C-1.34 5.36 -0.68 2.72 0 0 Z " fill="#293A48" transform="translate(616,399)"/>
</svg>
